<mxfile host="app.diagrams.net" modified="2022-03-14T10:20:41.602Z" agent="5.0 (Windows NT 10.0; Win64; x64) AppleWebKit/537.36 (KHTML, like Gecko) Chrome/99.0.4844.51 Safari/537.36" etag="FK4JUKvDXQYeYY9n5h6t" version="17.1.2" type="github">
  <diagram id="C5RBs43oDa-KdzZeNtuy" name="Invoice Management">
    <mxGraphModel dx="1019" dy="1699" grid="1" gridSize="10" guides="1" tooltips="1" connect="1" arrows="1" fold="1" page="1" pageScale="1" pageWidth="827" pageHeight="1169" math="0" shadow="0">
      <root>
        <mxCell id="WIyWlLk6GJQsqaUBKTNV-0" />
        <mxCell id="WIyWlLk6GJQsqaUBKTNV-1" parent="WIyWlLk6GJQsqaUBKTNV-0" />
        <mxCell id="WIyWlLk6GJQsqaUBKTNV-2" value="" style="rounded=0;html=1;jettySize=auto;orthogonalLoop=1;fontSize=11;endArrow=block;endFill=0;endSize=8;strokeWidth=1;shadow=0;labelBackgroundColor=none;edgeStyle=orthogonalEdgeStyle;exitX=0.5;exitY=1;exitDx=0;exitDy=0;" parent="WIyWlLk6GJQsqaUBKTNV-1" source="bt_09bJOynRYd0r6E16c-48" edge="1">
          <mxGeometry relative="1" as="geometry">
            <mxPoint x="428" y="-1000" as="sourcePoint" />
            <mxPoint x="428" y="-950" as="targetPoint" />
          </mxGeometry>
        </mxCell>
        <mxCell id="bt_09bJOynRYd0r6E16c-0" value="User Registration &amp;amp; Sign Up" style="rounded=1;whiteSpace=wrap;html=1;fontSize=12;glass=0;strokeWidth=1;shadow=0;" parent="WIyWlLk6GJQsqaUBKTNV-1" vertex="1">
          <mxGeometry x="368" y="-950" width="120" height="40" as="geometry" />
        </mxCell>
        <mxCell id="bt_09bJOynRYd0r6E16c-5" value="Send invitation link for signup(client)" style="rounded=1;whiteSpace=wrap;html=1;fontSize=12;glass=0;strokeWidth=1;shadow=0;" parent="WIyWlLk6GJQsqaUBKTNV-1" vertex="1">
          <mxGeometry x="608" y="-860" width="120" height="40" as="geometry" />
        </mxCell>
        <mxCell id="bt_09bJOynRYd0r6E16c-6" value="" style="rounded=0;html=1;jettySize=auto;orthogonalLoop=1;fontSize=11;endArrow=block;endFill=0;endSize=8;strokeWidth=1;shadow=0;labelBackgroundColor=none;edgeStyle=orthogonalEdgeStyle;exitX=0.486;exitY=0.993;exitDx=0;exitDy=0;exitPerimeter=0;entryX=0.5;entryY=0;entryDx=0;entryDy=0;" parent="WIyWlLk6GJQsqaUBKTNV-1" target="bt_09bJOynRYd0r6E16c-12" edge="1">
          <mxGeometry relative="1" as="geometry">
            <mxPoint x="426.5999999999999" y="-798.64" as="targetPoint" />
            <mxPoint x="427.32000000000016" y="-910.28" as="sourcePoint" />
            <Array as="points">
              <mxPoint x="427" y="-903" />
              <mxPoint x="428" y="-903" />
            </Array>
          </mxGeometry>
        </mxCell>
        <mxCell id="bt_09bJOynRYd0r6E16c-12" value="if client Already Exist" style="rhombus;whiteSpace=wrap;html=1;shadow=0;fontFamily=Helvetica;fontSize=12;align=center;strokeWidth=1;spacing=6;spacingTop=-4;" parent="WIyWlLk6GJQsqaUBKTNV-1" vertex="1">
          <mxGeometry x="348" y="-880" width="160" height="80" as="geometry" />
        </mxCell>
        <mxCell id="bt_09bJOynRYd0r6E16c-13" value="Create &amp;amp; Send Invoice by user" style="rounded=1;whiteSpace=wrap;html=1;fontSize=12;glass=0;strokeWidth=1;shadow=0;" parent="WIyWlLk6GJQsqaUBKTNV-1" vertex="1">
          <mxGeometry x="368" y="-730" width="120" height="40" as="geometry" />
        </mxCell>
        <mxCell id="bt_09bJOynRYd0r6E16c-14" value="yes" style="endArrow=classic;html=1;rounded=0;exitX=0.5;exitY=1;exitDx=0;exitDy=0;entryX=0.5;entryY=0;entryDx=0;entryDy=0;" parent="WIyWlLk6GJQsqaUBKTNV-1" source="bt_09bJOynRYd0r6E16c-12" target="bt_09bJOynRYd0r6E16c-13" edge="1">
          <mxGeometry relative="1" as="geometry">
            <mxPoint x="288" y="-820" as="sourcePoint" />
            <mxPoint x="388" y="-820" as="targetPoint" />
          </mxGeometry>
        </mxCell>
        <mxCell id="bt_09bJOynRYd0r6E16c-15" value="yes" style="edgeLabel;resizable=0;align=center;verticalAlign=middle;horizontal=1;" parent="bt_09bJOynRYd0r6E16c-14" connectable="0" vertex="1">
          <mxGeometry relative="1" as="geometry" />
        </mxCell>
        <mxCell id="bt_09bJOynRYd0r6E16c-16" value="no" style="endArrow=classic;html=1;rounded=0;exitX=1;exitY=0.5;exitDx=0;exitDy=0;entryX=0;entryY=0.5;entryDx=0;entryDy=0;" parent="WIyWlLk6GJQsqaUBKTNV-1" source="bt_09bJOynRYd0r6E16c-12" target="bt_09bJOynRYd0r6E16c-5" edge="1">
          <mxGeometry relative="1" as="geometry">
            <mxPoint x="358" y="-830" as="sourcePoint" />
            <mxPoint x="308" y="-830" as="targetPoint" />
            <Array as="points">
              <mxPoint x="558" y="-840" />
            </Array>
          </mxGeometry>
        </mxCell>
        <mxCell id="bt_09bJOynRYd0r6E16c-19" value="Invoice Confirmation Form Client" style="rounded=1;whiteSpace=wrap;html=1;fontSize=12;glass=0;strokeWidth=1;shadow=0;" parent="WIyWlLk6GJQsqaUBKTNV-1" vertex="1">
          <mxGeometry x="368" y="-650" width="120" height="40" as="geometry" />
        </mxCell>
        <mxCell id="bt_09bJOynRYd0r6E16c-22" value="" style="rounded=0;html=1;jettySize=auto;orthogonalLoop=1;fontSize=11;endArrow=block;endFill=0;endSize=8;strokeWidth=1;shadow=0;labelBackgroundColor=none;edgeStyle=orthogonalEdgeStyle;exitX=0.5;exitY=1;exitDx=0;exitDy=0;entryX=0.499;entryY=0.029;entryDx=0;entryDy=0;entryPerimeter=0;" parent="WIyWlLk6GJQsqaUBKTNV-1" source="bt_09bJOynRYd0r6E16c-13" target="bt_09bJOynRYd0r6E16c-19" edge="1">
          <mxGeometry relative="1" as="geometry">
            <mxPoint x="427.65999999999997" y="-680" as="sourcePoint" />
            <mxPoint x="427.65999999999997" y="-630" as="targetPoint" />
          </mxGeometry>
        </mxCell>
        <mxCell id="bt_09bJOynRYd0r6E16c-23" value="Accepted" style="endArrow=classic;html=1;rounded=0;exitX=0.5;exitY=1;exitDx=0;exitDy=0;entryX=0.503;entryY=0.025;entryDx=0;entryDy=0;entryPerimeter=0;fontStyle=4" parent="WIyWlLk6GJQsqaUBKTNV-1" source="bt_09bJOynRYd0r6E16c-19" target="bt_09bJOynRYd0r6E16c-36" edge="1">
          <mxGeometry relative="1" as="geometry">
            <mxPoint x="348" y="-620" as="sourcePoint" />
            <mxPoint x="428" y="-540" as="targetPoint" />
          </mxGeometry>
        </mxCell>
        <mxCell id="bt_09bJOynRYd0r6E16c-27" value="declined" style="endArrow=classic;html=1;rounded=0;exitX=1;exitY=0.5;exitDx=0;exitDy=0;" parent="WIyWlLk6GJQsqaUBKTNV-1" source="bt_09bJOynRYd0r6E16c-19" edge="1">
          <mxGeometry relative="1" as="geometry">
            <mxPoint x="498" y="-630.42" as="sourcePoint" />
            <mxPoint x="588" y="-630" as="targetPoint" />
          </mxGeometry>
        </mxCell>
        <mxCell id="bt_09bJOynRYd0r6E16c-29" value="Mesage to the user" style="rounded=1;whiteSpace=wrap;html=1;fontSize=12;glass=0;strokeWidth=1;shadow=0;" parent="WIyWlLk6GJQsqaUBKTNV-1" vertex="1">
          <mxGeometry x="588" y="-650" width="120" height="40" as="geometry" />
        </mxCell>
        <mxCell id="bt_09bJOynRYd0r6E16c-30" value="Pay automatically" style="rounded=1;whiteSpace=wrap;html=1;fontSize=12;glass=0;strokeWidth=1;shadow=0;" parent="WIyWlLk6GJQsqaUBKTNV-1" vertex="1">
          <mxGeometry x="152" y="-515" width="120" height="40" as="geometry" />
        </mxCell>
        <mxCell id="bt_09bJOynRYd0r6E16c-35" value="yes" style="endArrow=classic;html=1;rounded=0;entryX=1;entryY=0.5;entryDx=0;entryDy=0;exitX=0;exitY=0.5;exitDx=0;exitDy=0;" parent="WIyWlLk6GJQsqaUBKTNV-1" source="bt_09bJOynRYd0r6E16c-36" target="bt_09bJOynRYd0r6E16c-30" edge="1">
          <mxGeometry relative="1" as="geometry">
            <mxPoint x="352" y="-494.9999999999999" as="sourcePoint" />
            <mxPoint x="362" y="-438" as="targetPoint" />
          </mxGeometry>
        </mxCell>
        <mxCell id="bt_09bJOynRYd0r6E16c-36" value="Autopay mode is on" style="rhombus;whiteSpace=wrap;html=1;shadow=0;fontFamily=Helvetica;fontSize=12;align=center;strokeWidth=1;spacing=6;spacingTop=-4;" parent="WIyWlLk6GJQsqaUBKTNV-1" vertex="1">
          <mxGeometry x="362" y="-536" width="130" height="80" as="geometry" />
        </mxCell>
        <mxCell id="bt_09bJOynRYd0r6E16c-41" value="Scheduled Client?" style="rhombus;whiteSpace=wrap;html=1;shadow=0;fontFamily=Helvetica;fontSize=12;align=center;strokeWidth=1;spacing=6;spacingTop=-4;" parent="WIyWlLk6GJQsqaUBKTNV-1" vertex="1">
          <mxGeometry x="362" y="-410" width="130" height="80" as="geometry" />
        </mxCell>
        <mxCell id="bt_09bJOynRYd0r6E16c-33" value="no" style="endArrow=classic;html=1;rounded=0;exitX=0.5;exitY=1;exitDx=0;exitDy=0;" parent="WIyWlLk6GJQsqaUBKTNV-1" source="bt_09bJOynRYd0r6E16c-36" target="bt_09bJOynRYd0r6E16c-41" edge="1">
          <mxGeometry relative="1" as="geometry">
            <mxPoint x="472" y="-496.9999999999999" as="sourcePoint" />
            <mxPoint x="592" y="-495" as="targetPoint" />
          </mxGeometry>
        </mxCell>
        <mxCell id="bt_09bJOynRYd0r6E16c-42" value="will pay automatically after given number of days" style="rounded=1;whiteSpace=wrap;html=1;fontSize=12;glass=0;strokeWidth=1;shadow=0;" parent="WIyWlLk6GJQsqaUBKTNV-1" vertex="1">
          <mxGeometry x="128" y="-395" width="150" height="50" as="geometry" />
        </mxCell>
        <mxCell id="bt_09bJOynRYd0r6E16c-43" value="yes" style="endArrow=classic;html=1;rounded=0;exitX=0;exitY=0.5;exitDx=0;exitDy=0;entryX=1;entryY=0.5;entryDx=0;entryDy=0;" parent="WIyWlLk6GJQsqaUBKTNV-1" source="bt_09bJOynRYd0r6E16c-41" target="bt_09bJOynRYd0r6E16c-42" edge="1">
          <mxGeometry relative="1" as="geometry">
            <mxPoint x="362" y="-370.5" as="sourcePoint" />
            <mxPoint x="288" y="-370" as="targetPoint" />
          </mxGeometry>
        </mxCell>
        <mxCell id="bt_09bJOynRYd0r6E16c-45" value="Can pay from payment link / mannually" style="rounded=1;whiteSpace=wrap;html=1;fontSize=12;glass=0;strokeWidth=1;shadow=0;" parent="WIyWlLk6GJQsqaUBKTNV-1" vertex="1">
          <mxGeometry x="588" y="-395" width="150" height="50" as="geometry" />
        </mxCell>
        <mxCell id="bt_09bJOynRYd0r6E16c-46" value="no" style="endArrow=classic;html=1;rounded=0;entryX=0;entryY=0.5;entryDx=0;entryDy=0;exitX=0.993;exitY=0.5;exitDx=0;exitDy=0;exitPerimeter=0;" parent="WIyWlLk6GJQsqaUBKTNV-1" source="bt_09bJOynRYd0r6E16c-41" target="bt_09bJOynRYd0r6E16c-45" edge="1">
          <mxGeometry relative="1" as="geometry">
            <mxPoint x="498" y="-360" as="sourcePoint" />
            <mxPoint x="568" y="-360" as="targetPoint" />
            <Array as="points">
              <mxPoint x="542" y="-370.4" />
            </Array>
          </mxGeometry>
        </mxCell>
        <mxCell id="bt_09bJOynRYd0r6E16c-48" value="Tally Pay" style="ellipse;whiteSpace=wrap;html=1;" parent="WIyWlLk6GJQsqaUBKTNV-1" vertex="1">
          <mxGeometry x="368" y="-1090" width="120" height="80" as="geometry" />
        </mxCell>
        <mxCell id="bt_09bJOynRYd0r6E16c-50" value="Payment gatway" style="rounded=1;whiteSpace=wrap;html=1;fontSize=12;glass=0;strokeWidth=1;shadow=0;" parent="WIyWlLk6GJQsqaUBKTNV-1" vertex="1">
          <mxGeometry x="367" y="-260" width="120" height="40" as="geometry" />
        </mxCell>
        <mxCell id="bt_09bJOynRYd0r6E16c-53" style="edgeStyle=orthogonalEdgeStyle;rounded=0;orthogonalLoop=1;jettySize=auto;html=1;entryX=-0.013;entryY=0.634;entryDx=0;entryDy=0;entryPerimeter=0;" parent="WIyWlLk6GJQsqaUBKTNV-1" source="bt_09bJOynRYd0r6E16c-30" target="bt_09bJOynRYd0r6E16c-50" edge="1">
          <mxGeometry relative="1" as="geometry">
            <Array as="points">
              <mxPoint x="88" y="-495" />
              <mxPoint x="88" y="-235" />
            </Array>
          </mxGeometry>
        </mxCell>
        <mxCell id="bt_09bJOynRYd0r6E16c-54" style="edgeStyle=orthogonalEdgeStyle;rounded=0;orthogonalLoop=1;jettySize=auto;html=1;entryX=0.5;entryY=0;entryDx=0;entryDy=0;" parent="WIyWlLk6GJQsqaUBKTNV-1" source="bt_09bJOynRYd0r6E16c-42" target="bt_09bJOynRYd0r6E16c-50" edge="1">
          <mxGeometry relative="1" as="geometry">
            <Array as="points">
              <mxPoint x="208" y="-290" />
              <mxPoint x="427" y="-290" />
            </Array>
          </mxGeometry>
        </mxCell>
        <mxCell id="bt_09bJOynRYd0r6E16c-57" value="End" style="ellipse;whiteSpace=wrap;html=1;aspect=fixed;" parent="WIyWlLk6GJQsqaUBKTNV-1" vertex="1">
          <mxGeometry x="387" y="-170" width="80" height="80" as="geometry" />
        </mxCell>
        <mxCell id="bt_09bJOynRYd0r6E16c-55" style="edgeStyle=orthogonalEdgeStyle;rounded=0;orthogonalLoop=1;jettySize=auto;html=1;entryX=1;entryY=0.5;entryDx=0;entryDy=0;" parent="WIyWlLk6GJQsqaUBKTNV-1" source="bt_09bJOynRYd0r6E16c-45" target="bt_09bJOynRYd0r6E16c-50" edge="1">
          <mxGeometry relative="1" as="geometry">
            <Array as="points">
              <mxPoint x="658" y="-240" />
            </Array>
          </mxGeometry>
        </mxCell>
        <mxCell id="bt_09bJOynRYd0r6E16c-59" style="edgeStyle=orthogonalEdgeStyle;rounded=0;orthogonalLoop=1;jettySize=auto;html=1;entryX=0.5;entryY=0;entryDx=0;entryDy=0;" parent="WIyWlLk6GJQsqaUBKTNV-1" source="bt_09bJOynRYd0r6E16c-50" target="bt_09bJOynRYd0r6E16c-57" edge="1">
          <mxGeometry relative="1" as="geometry" />
        </mxCell>
      </root>
    </mxGraphModel>
  </diagram>
</mxfile>
